{
    "asset" : {
        "generator" : "Khronos glTF Blender I/O v1.7.33",
        "version" : "2.0"
    },
    "extensionsUsed" : [
        "KHR_texture_transform"
    ],
    "extensionsRequired" : [
        "KHR_texture_transform"
    ],
    "scene" : 0,
    "scenes" : [
        {
            "name" : "Scene",
            "nodes" : [
                0
            ]
        }
    ],
    "nodes" : [
        {
            "mesh" : 0,
            "name" : "Sphere",
            "rotation" : [
                0.7071068286895752,
                0,
                0,
                0.7071067094802856
            ],
            "scale" : [
                0.009999999776482582,
                0.009999999776482582,
                0.009999999776482582
            ]
        }
    ],
    "materials" : [
        {
            "doubleSided" : true,
            "name" : "Sphere",
            "pbrMetallicRoughness" : {
                "baseColorTexture" : {
                    "extensions" : {
                        "KHR_texture_transform" : {
                            "offset" : [
                                0,
                                -1
                            ]
                        }
                    },
                    "index" : 0
                },
                "metallicFactor" : 0,
                "roughnessFactor" : 0.5527864098548889
            }
        }
    ],
    "meshes" : [
        {
            "name" : "Mesh",
            "primitives" : [
                {
                    "attributes" : {
                        "POSITION" : 0,
                        "NORMAL" : 1,
                        "TEXCOORD_0" : 2
                    },
                    "indices" : 3,
                    "material" : 0
                }
            ]
        }
    ],
    "textures" : [
        {
            "sampler" : 0,
            "source" : 0
        }
    ],
    "images" : [
        {
            "bufferView" : 4,
            "mimeType" : "image/png",
            "name" : "autumnSurface_Color"
        }
    ],
    "accessors" : [
        {
            "bufferView" : 0,
            "componentType" : 5126,
            "count" : 510,
            "max" : [
                545.1207275390625,
                1025.233154296875,
                31.101600646972656
            ],
            "min" : [
                -545.1207275390625,
                -856.9636840820312,
                -2072.721435546875
            ],
            "type" : "VEC3"
        },
        {
            "bufferView" : 1,
            "componentType" : 5126,
            "count" : 510,
            "type" : "VEC3"
        },
        {
            "bufferView" : 2,
            "componentType" : 5126,
            "count" : 510,
            "type" : "VEC2"
        },
        {
            "bufferView" : 3,
            "componentType" : 5123,
            "count" : 1992,
            "type" : "SCALAR"
        }
    ],
    "bufferViews" : [
        {
            "buffer" : 0,
            "byteLength" : 6120,
            "byteOffset" : 0
        },
        {
            "buffer" : 0,
            "byteLength" : 6120,
            "byteOffset" : 6120
        },
        {
            "buffer" : 0,
            "byteLength" : 4080,
            "byteOffset" : 12240
        },
        {
            "buffer" : 0,
            "byteLength" : 3984,
            "byteOffset" : 16320
        },
        {
            "buffer" : 0,
            "byteLength" : 215293,
            "byteOffset" : 20304
        }
    ],
    "samplers" : [
        {
            "magFilter" : 9729,
            "minFilter" : 9987
        }
    ],
    "buffers" : [
        {
            "byteLength" : 235600,
            "uri" : "data:application/octet-stream;base64,"
        }
    ]
}
